# xmcd
#
# Track frame offsets: 
#        150
#        16996
#        29214
#        46994
#        67644
#        90103
#        103145
#        132853
#        154002
#        179495
#
# Disc length: 2853 seconds
#
# Revision: 0
# Processed by: cddbd v1.5.2PL0 Copyright (c) Steve Scherf et al.
# Submitted via: ExactAudioCopyFreeDBPlugin 1.0
#
DISCID=770b230a
DTITLE=Joseph Huber - The Hanging Road
DYEAR=2014
DGENRE=Bluegrass
TTITLE0=Same River Twice
TTITLE1=Shovel on Your Shoulder
TTITLE2=Two Tongued Swear
TTITLE3=Coming Down From You
TTITLE4=Father, Why these Stones
TTITLE5=Goin Far On Little (Just A Little Too Long)
TTITLE6=The Hanging Road
TTITLE7=Broken Paddles
TTITLE8=Wanchese and Manteo
TTITLE9=The Unpromised Land
EXTD=
EXTT0=
EXTT1=
EXTT2=
EXTT3=
EXTT4=
EXTT5=
EXTT6=
EXTT7=
EXTT8=
EXTT9=
PLAYORDER=
